<svg version="1.1" viewBox="0.0 0.0 1024.0 1024.0" fill="none" stroke="none" stroke-linecap="square" stroke-miterlimit="10" xmlns:xlink="http://www.w3.org/1999/xlink" xmlns="http://www.w3.org/2000/svg"><clipPath id="p.0"><path d="m0 0l1024.0 0l0 1024.0l-1024.0 0l0 -1024.0z" clip-rule="nonzero"/></clipPath><g clip-path="url(#p.0)"><path fill="#000000" fill-opacity="0.0" d="m0 0l1024.0 0l0 1024.0l-1024.0 0z" fill-rule="evenodd"/><path fill="#fa041b" d="m9.826772 512.0l0 0c0 -277.34262 224.83061 -502.17322 502.17322 -502.17322l0 0c133.18463 0 260.91437 52.907387 355.0901 147.08315c94.17578 94.175735 147.08313 221.90546 147.08313 355.0901l0 0c0 277.3426 -224.83063 502.17322 -502.17322 502.17322l0 0c-277.34262 0 -502.17322 -224.83063 -502.17322 -502.17322z" fill-rule="evenodd"/><path fill="#000000" fill-opacity="0.0" d="m216.82513 511.99048l0 0c0 -163.01532 132.15002 -295.16534 295.16534 -295.16534l0 0c78.282715 0 153.35919 31.097687 208.71344 86.451935c55.354248 55.354248 86.451904 130.4307 86.451904 208.71341l0 0c0 163.01532 -132.15002 295.16534 -295.16534 295.16534l0 0c-163.01532 0 -295.16534 -132.15002 -295.16534 -295.16534z" fill-rule="evenodd"/><path stroke="#ffffff" stroke-width="8.0" stroke-linejoin="round" stroke-linecap="butt" d="m216.82513 511.99048l0 0c0 -163.01532 132.15002 -295.16534 295.16534 -295.16534l0 0c78.282715 0 153.35919 31.097687 208.71344 86.451935c55.354248 55.354248 86.451904 130.4307 86.451904 208.71341l0 0c0 163.01532 -132.15002 295.16534 -295.16534 295.16534l0 0c-163.01532 0 -295.16534 -132.15002 -295.16534 -295.16534z" fill-rule="evenodd"/><path fill="#ffffff" d="m307.76062 416.92993l142.48819 82.409454l-142.48819 82.409454z" fill-rule="evenodd"/><path fill="#ffffff" d="m725.3882 417.09442l0 164.4093l-55.92206 0l0 -164.4093zm-83.88306 0l0 164.4093l-55.92206 0l0 -164.4093z" fill-rule="evenodd"/><path fill="#ffffff" d="m542.6097 408.09604l0 0c1.126831 -1.9533691 3.6220703 -2.6202698 5.573242 -1.4895935l14.1311035 8.188904l0 0c0.9369507 0.54296875 1.6206055 1.4363403 1.9005127 2.4835815c0.27990723 1.0472107 0.13311768 2.1625366 -0.40802002 3.1005554l-98.12396 170.09164c-1.1268616 1.9533691 -3.6221008 2.6202393 -5.5732727 1.489563l-14.131073 -8.188904c-1.9511719 -1.1306763 -2.6193848 -3.6307983 -1.4925232 -5.5841675z" fill-rule="evenodd"/><path fill="#000000" fill-opacity="0.0" d="m9.826772 512.0l0 0c0 -277.34262 224.83061 -502.17322 502.17322 -502.17322l0 0c133.18463 0 260.91437 52.907387 355.0901 147.08315c94.17578 94.175735 147.08313 221.90546 147.08313 355.0901l0 0c0 277.3426 -224.83063 502.17322 -502.17322 502.17322l0 0c-277.34262 0 -502.17322 -224.83063 -502.17322 -502.17322z" fill-rule="evenodd"/><path stroke="#ffffff" stroke-width="12.0" stroke-linejoin="round" stroke-linecap="butt" d="m9.826772 512.0l0 0c0 -277.34262 224.83061 -502.17322 502.17322 -502.17322l0 0c133.18463 0 260.91437 52.907387 355.0901 147.08315c94.17578 94.175735 147.08313 221.90546 147.08313 355.0901l0 0c0 277.3426 -224.83063 502.17322 -502.17322 502.17322l0 0c-277.34262 0 -502.17322 -224.83063 -502.17322 -502.17322z" fill-rule="evenodd"/></g></svg>